<?xml version="1.0" standalone="no"?>
<!DOCTYPE svg PUBLIC "-//W3C//DTD SVG 20010904//EN"
 "http://www.w3.org/TR/2001/REC-SVG-20010904/DTD/svg10.dtd">
<svg version="1.0" xmlns="http://www.w3.org/2000/svg"
 width="1080.000000pt" height="1080.000000pt" viewBox="0 0 1080.000000 1080.000000"
 preserveAspectRatio="xMidYMid meet">

<g transform="translate(0.000000,1080.000000) scale(0.100000,-0.100000)"
fill="#000000" stroke="none">
<path d="M2900 7764 c-261 -36 -499 -107 -725 -218 -255 -126 -457 -276 -676
-504 -419 -436 -628 -910 -689 -1557 -27 -290 10 -633 104 -976 115 -418 373
-841 712 -1169 183 -178 344 -295 556 -405 388 -201 786 -283 1232 -255 350
22 604 89 900 237 319 160 406 236 1401 1223 972 965 1362 1347 1445 1413 228
183 468 301 715 353 136 29 426 26 550 -4 249 -62 420 -168 567 -351 142 -177
206 -364 215 -631 6 -173 -11 -294 -62 -446 -146 -436 -486 -817 -907 -1014
-116 -54 -303 -117 -418 -140 -224 -46 -536 -46 -769 -1 -460 90 -881 338
-1179 696 -41 50 -79 91 -83 93 -8 3 -319 -285 -319 -295 0 -11 146 -179 240
-277 247 -256 571 -477 895 -609 291 -119 551 -174 870 -184 421 -13 778 63
1144 242 475 234 840 599 1071 1070 140 286 219 548 249 827 14 124 14 484 1
619 -84 847 -648 1657 -1414 2033 -338 166 -647 237 -1026 237 -587 0 -1118
-190 -1591 -567 -124 -99 -458 -416 -1042 -990 -1275 -1252 -1342 -1315 -1496
-1416 -376 -245 -829 -281 -1201 -94 -105 53 -155 90 -245 180 -89 89 -136
155 -196 276 -90 179 -115 309 -106 540 11 255 68 440 208 682 97 167 301 404
450 523 271 218 633 375 1008 439 267 45 571 46 801 2 311 -59 653 -213 885
-399 38 -31 71 -54 73 -52 7 7 -105 130 -200 221 -367 353 -846 584 -1341 649
-147 19 -462 18 -607 -1z"/>
</g>
</svg>
